<svg width="64" height="64" viewBox="0 0 64 64" fill="none" xmlns="http://www.w3.org/2000/svg">
<circle cx="32" cy="32" r="31.5" fill="white" stroke="#E0DEF7"/>
<circle cx="32" cy="32" r="28" fill="#E0DEF7"/>
<g clip-path="url(#clip0_2307_9526)">
<path fill-rule="evenodd" clip-rule="evenodd" d="M18.6667 32H21.6296V42.3703C21.6296 43.1562 21.9418 43.9098 22.4975 44.4655C23.0531 45.0211 23.8068 45.3333 24.5926 45.3333H39.4074C40.1932 45.3333 40.9469 45.0211 41.5025 44.4655C42.0582 43.9098 42.3704 43.1562 42.3704 42.3703V32H42.3705H45.3334L32.0001 18.6666L18.6667 32Z" fill="white"/>
<path d="M21.6296 32H22.6296C22.6296 31.4477 22.1819 31 21.6296 31V32ZM18.6667 32L17.9596 31.2929C17.6736 31.5789 17.5881 32.009 17.7429 32.3826C17.8976 32.7563 18.2623 33 18.6667 33V32ZM22.4975 44.4655L23.2046 43.7584L22.4975 44.4655ZM41.5025 44.4655L40.7954 43.7584L40.7954 43.7584L41.5025 44.4655ZM42.3704 32V31C41.8181 31 41.3704 31.4477 41.3704 32H42.3704ZM45.3334 32V33C45.7379 33 46.1025 32.7563 46.2573 32.3826C46.4121 32.009 46.3265 31.5789 46.0405 31.2929L45.3334 32ZM32.0001 18.6666L32.7072 17.9595C32.3167 17.569 31.6835 17.569 31.293 17.9595L32.0001 18.6666ZM21.6296 32V31H18.6667V32V33H21.6296V32ZM21.6296 32H20.6296V42.3703H21.6296H22.6296V32H21.6296ZM21.6296 42.3703H20.6296C20.6296 43.4214 21.0472 44.4294 21.7904 45.1726L22.4975 44.4655L23.2046 43.7584C22.8364 43.3902 22.6296 42.8909 22.6296 42.3703H21.6296ZM22.4975 44.4655L21.7904 45.1726C22.5336 45.9158 23.5416 46.3333 24.5926 46.3333V45.3333V44.3333C24.072 44.3333 23.5727 44.1265 23.2046 43.7584L22.4975 44.4655ZM24.5926 45.3333V46.3333H39.4074V45.3333V44.3333H24.5926V45.3333ZM39.4074 45.3333V46.3333C40.4585 46.3333 41.4665 45.9158 42.2097 45.1726L41.5025 44.4655L40.7954 43.7584C40.4273 44.1265 39.928 44.3333 39.4074 44.3333V45.3333ZM41.5025 44.4655L42.2097 45.1726C42.9529 44.4294 43.3704 43.4214 43.3704 42.3703H42.3704H41.3704C41.3704 42.8909 41.1636 43.3902 40.7954 43.7584L41.5025 44.4655ZM42.3704 42.3703H43.3704V32H42.3704H41.3704V42.3703H42.3704ZM42.3705 32V31H42.3704V32V33H42.3705V32ZM45.3334 32V31H42.3705V32V33H45.3334V32ZM32.0001 18.6666L31.293 19.3737L44.6263 32.7071L45.3334 32L46.0405 31.2929L32.7072 17.9595L32.0001 18.6666ZM18.6667 32L19.3739 32.7071L32.7072 19.3737L32.0001 18.6666L31.293 17.9595L17.9596 31.2929L18.6667 32Z" fill="white"/>
<path d="M28 34.0002L30.6667 36.6668L36 31.3335" stroke="#7065F0" stroke-width="2" stroke-linecap="round" stroke-linejoin="round"/>
</g>
<path d="M40 40H64V52C64 58.6274 58.6274 64 52 64C45.3726 64 40 58.6274 40 52V40Z" fill="#7065F0"/>
<path d="M56.36 46.78L52.6934 45.4066C52.3134 45.2666 51.6934 45.2666 51.3134 45.4066L47.6467 46.78C46.94 47.0466 46.3667 47.8733 46.3667 48.6266V54.0266C46.3667 54.5666 46.72 55.28 47.1534 55.6L50.82 58.34C51.4667 58.8266 52.5267 58.8266 53.1734 58.34L56.84 55.6C57.2734 55.2733 57.6267 54.5666 57.6267 54.0266V48.6266C57.6334 47.8733 57.06 47.0466 56.36 46.78ZM52.5 52.58V54.3333C52.5 54.6066 52.2734 54.8333 52 54.8333C51.7267 54.8333 51.5 54.6066 51.5 54.3333V52.58C50.8267 52.3666 50.3334 51.74 50.3334 51C50.3334 50.08 51.08 49.3333 52 49.3333C52.92 49.3333 53.6667 50.08 53.6667 51C53.6667 51.7466 53.1734 52.3666 52.5 52.58Z" fill="white"/>
<defs>
<clipPath id="clip0_2307_9526">
<rect width="32" height="32" fill="white" transform="translate(16 16)"/>
</clipPath>
</defs>
</svg>
