<svg width="25" height="25" viewBox="0 0 25 25" fill="none" xmlns="http://www.w3.org/2000/svg">
<g clip-path="url(#clip0_2555_1975)">
<path d="M23.6301 13.2975H22.7208H5.95169V5.39796C5.95169 4.35672 6.79877 3.50964 7.83996 3.50964C8.66336 3.50964 9.36494 4.03961 9.62256 4.77625C8.33641 5.01039 7.35789 6.13811 7.35789 7.49088V8.17277C7.35789 8.56108 7.6727 8.87589 8.06102 8.87589H12.8017C13.19 8.87589 13.5048 8.56108 13.5048 8.17277V7.49088C13.5048 6.07914 12.4392 4.91233 11.0703 4.75071C10.7687 3.24297 9.43502 2.10339 7.83996 2.10339C6.02336 2.10339 4.54544 3.58132 4.54544 5.39796V13.2975H1.94575H1.03638C0.648064 13.2975 0.333252 13.6123 0.333252 14.0006C0.333252 14.389 0.648064 14.7038 1.03638 14.7038H1.37622L2.03467 17.8066C2.27467 18.9378 2.90172 19.9615 3.80022 20.6894C3.85445 20.7333 3.90958 20.7759 3.96546 20.8174L3.38003 21.8454C3.18785 22.1828 3.3056 22.6121 3.64305 22.8043C3.75288 22.8669 3.87241 22.8966 3.99035 22.8966C4.2348 22.8966 4.47236 22.7688 4.60197 22.5413L5.20052 21.4903C5.76841 21.7045 6.37389 21.8181 6.98669 21.8181H17.6798C18.2926 21.8181 18.8981 21.7045 19.466 21.4903L20.0645 22.5413C20.1942 22.7689 20.4317 22.8966 20.6762 22.8966C20.7941 22.8966 20.9136 22.8668 21.0235 22.8043C21.3609 22.6121 21.4787 22.1828 21.2865 21.8454L20.701 20.8174C20.7569 20.7759 20.8121 20.7333 20.8663 20.6894C21.7648 19.9615 22.3918 18.9378 22.6318 17.8066L23.2903 14.7038H23.6301C24.0184 14.7038 24.3333 14.389 24.3333 14.0006C24.3333 13.6123 24.0184 13.2975 23.6301 13.2975ZM12.0984 7.4696H8.76433C8.77572 6.73291 9.37853 6.13708 10.1178 6.13708H10.7448C11.4842 6.13708 12.087 6.73291 12.0984 7.4696ZM21.2562 17.5147C20.9 19.1935 19.3959 20.4119 17.6798 20.4119H6.98669C5.2706 20.4119 3.76647 19.1935 3.41022 17.5147L2.81374 14.7038H21.8527L21.2562 17.5147Z" fill="#100E2C"/>
<path d="M11.8001 9.86035C11.7995 9.86035 11.799 9.86035 11.7984 9.86035C11.4101 9.86129 11.096 10.1768 11.0969 10.5652L11.0997 11.7199C11.1006 12.1076 11.4152 12.4214 11.8028 12.4214H11.8045C12.1928 12.4204 12.5068 12.1049 12.5059 11.7166L12.5032 10.5618C12.5023 10.174 12.1877 9.86035 11.8001 9.86035Z" fill="#100E2C"/>
<path d="M9.06254 9.86035C8.67502 9.86035 8.36039 10.174 8.35946 10.5618L8.35669 11.7166C8.35575 12.1049 8.66982 12.4205 9.05813 12.4214H9.05986C9.44738 12.4214 9.762 12.1077 9.76294 11.7199L9.76571 10.5652C9.76664 10.1768 9.45258 9.86124 9.06427 9.86035C9.06371 9.86035 9.06314 9.86035 9.06254 9.86035Z" fill="#100E2C"/>
</g>
<defs>
<clipPath id="clip0_2555_1975">
<rect width="24" height="24" fill="white" transform="translate(0.333252 0.5)"/>
</clipPath>
</defs>
</svg>
