<svg width="64" height="64" viewBox="0 0 64 64" fill="none" xmlns="http://www.w3.org/2000/svg">
<circle cx="32" cy="32" r="31.5" fill="white" stroke="#E0DEF7"/>
<circle cx="32" cy="32" r="28" fill="#E0DEF7"/>
<rect x="40" y="40" width="24" height="24" rx="12" fill="#7065F0"/>
<path d="M51.5 49.3867V51.2934L50.8267 51.0601C50.4867 50.9401 50.28 50.8267 50.28 50.2467C50.28 49.7734 50.6334 49.3867 51.0667 49.3867H51.5Z" fill="white"/>
<path d="M53.72 53.7533C53.72 54.2267 53.3667 54.6133 52.9333 54.6133H52.5V52.7067L53.1733 52.94C53.5133 53.06 53.72 53.1733 53.72 53.7533Z" fill="white"/>
<path d="M54.7933 45.3334H49.2066C46.7799 45.3334 45.3333 46.78 45.3333 49.2067V54.7934C45.3333 57.22 46.7799 58.6667 49.2066 58.6667H54.7933C57.2199 58.6667 58.6666 57.22 58.6666 54.7934V49.2067C58.6666 46.78 57.2199 45.3334 54.7933 45.3334ZM53.5066 52C54.0266 52.18 54.7199 52.56 54.7199 53.7534C54.7199 54.78 53.9199 55.6134 52.9333 55.6134H52.4999V56C52.4999 56.2734 52.2733 56.5 51.9999 56.5C51.7266 56.5 51.4999 56.2734 51.4999 56V55.6134H51.2599C50.1666 55.6134 49.2799 54.6867 49.2799 53.5534C49.2799 53.28 49.4999 53.0534 49.7799 53.0534C50.0533 53.0534 50.2799 53.28 50.2799 53.5534C50.2799 54.14 50.7199 54.6134 51.2599 54.6134H51.4999V52.3534L50.4933 52C49.9733 51.82 49.2799 51.44 49.2799 50.2467C49.2799 49.22 50.0799 48.3867 51.0666 48.3867H51.4999V48C51.4999 47.7267 51.7266 47.5 51.9999 47.5C52.2733 47.5 52.4999 47.7267 52.4999 48V48.3867H52.7399C53.8333 48.3867 54.7199 49.3134 54.7199 50.4467C54.7199 50.72 54.4999 50.9467 54.2199 50.9467C53.9466 50.9467 53.7199 50.72 53.7199 50.4467C53.7199 49.86 53.2799 49.3867 52.7399 49.3867H52.4999V51.6467L53.5066 52Z" fill="white"/>
<path d="M32.0001 44L45.3334 34.6667H40.0134L40.0001 20H24.0001V34.6667H18.6667L32.0001 44Z" fill="white" stroke="white" stroke-width="2" stroke-linecap="round" stroke-linejoin="round"/>
<g filter="url(#filter0_d_2307_9553)">
<path d="M28 34.6666L36 26.6666" stroke="#7065F0" stroke-width="2" stroke-linecap="round" stroke-linejoin="round"/>
</g>
<g filter="url(#filter1_d_2307_9553)">
<path d="M28.6667 28C29.0349 28 29.3333 27.7015 29.3333 27.3333C29.3333 26.9651 29.0349 26.6666 28.6667 26.6666C28.2985 26.6666 28 26.9651 28 27.3333C28 27.7015 28.2985 28 28.6667 28Z" fill="#7065F0"/>
<path d="M28.6667 28C29.0349 28 29.3333 27.7015 29.3333 27.3333C29.3333 26.9651 29.0349 26.6666 28.6667 26.6666C28.2985 26.6666 28 26.9651 28 27.3333C28 27.7015 28.2985 28 28.6667 28Z" stroke="#7065F0" stroke-width="2" stroke-linecap="round" stroke-linejoin="round"/>
</g>
<path d="M35.3334 34.6667C35.7016 34.6667 36.0001 34.3682 36.0001 34C36.0001 33.6319 35.7016 33.3334 35.3334 33.3334C34.9652 33.3334 34.6667 33.6319 34.6667 34C34.6667 34.3682 34.9652 34.6667 35.3334 34.6667Z" fill="#7065F0" stroke="#7065F0" stroke-width="2" stroke-linecap="round" stroke-linejoin="round"/>
<defs>
<filter id="filter0_d_2307_9553" x="25" y="23.6666" width="18" height="18" filterUnits="userSpaceOnUse" color-interpolation-filters="sRGB">
<feFlood flood-opacity="0" result="BackgroundImageFix"/>
<feColorMatrix in="SourceAlpha" type="matrix" values="0 0 0 0 0 0 0 0 0 0 0 0 0 0 0 0 0 0 127 0" result="hardAlpha"/>
<feOffset dx="2" dy="2"/>
<feGaussianBlur stdDeviation="2"/>
<feComposite in2="hardAlpha" operator="out"/>
<feColorMatrix type="matrix" values="0 0 0 0 0.439216 0 0 0 0 0.396078 0 0 0 0 0.941176 0 0 0 0.1 0"/>
<feBlend mode="normal" in2="BackgroundImageFix" result="effect1_dropShadow_2307_9553"/>
<feBlend mode="normal" in="SourceGraphic" in2="effect1_dropShadow_2307_9553" result="shape"/>
</filter>
<filter id="filter1_d_2307_9553" x="25" y="23.6666" width="11.3333" height="11.3334" filterUnits="userSpaceOnUse" color-interpolation-filters="sRGB">
<feFlood flood-opacity="0" result="BackgroundImageFix"/>
<feColorMatrix in="SourceAlpha" type="matrix" values="0 0 0 0 0 0 0 0 0 0 0 0 0 0 0 0 0 0 127 0" result="hardAlpha"/>
<feOffset dx="2" dy="2"/>
<feGaussianBlur stdDeviation="2"/>
<feComposite in2="hardAlpha" operator="out"/>
<feColorMatrix type="matrix" values="0 0 0 0 0.439216 0 0 0 0 0.396078 0 0 0 0 0.941176 0 0 0 0.1 0"/>
<feBlend mode="normal" in2="BackgroundImageFix" result="effect1_dropShadow_2307_9553"/>
<feBlend mode="normal" in="SourceGraphic" in2="effect1_dropShadow_2307_9553" result="shape"/>
</filter>
</defs>
</svg>
