<svg width="24" height="25" viewBox="0 0 24 25" fill="none" xmlns="http://www.w3.org/2000/svg">
<path d="M22.1055 7.33999L12.3555 2.08999C12.1343 1.97074 11.8665 1.97074 11.6453 2.08999L1.89525 7.33999C1.6515 7.47049 1.5 7.72399 1.5 7.99999V22.25C1.5 22.664 1.83525 23 2.25 23H21.75C22.1647 23 22.5 22.664 22.5 22.25V7.99999C22.5 7.72399 22.3485 7.47049 22.1055 7.33999ZM6.75 15.5H17.25V17.75H6.75V15.5ZM17.25 14H6.75V11.75H17.25V14ZM6.75 21.5V19.25H17.25V21.5H6.75ZM21 21.5H18.75V11C18.75 10.586 18.4147 10.25 18 10.25H6C5.58525 10.25 5.25 10.586 5.25 11V21.5H3V8.44774L12 3.60199L21 8.44774V21.5Z" fill="#100E2C"/>
</svg>
