<svg width="25" height="25" viewBox="0 0 25 25" fill="none" xmlns="http://www.w3.org/2000/svg">
<path d="M18.8534 2.5H6.48008C5.46926 2.50176 4.50035 2.90409 3.78559 3.61885C3.07084 4.3336 2.66851 5.30252 2.66675 6.31333V18.6867C2.66851 19.6975 3.07084 20.6664 3.78559 21.3812C4.50035 22.0959 5.46926 22.4982 6.48008 22.5H18.8534C19.8642 22.4982 20.8331 22.0959 21.5479 21.3812C22.2627 20.6664 22.665 19.6975 22.6667 18.6867V6.31333C22.665 5.30252 22.2627 4.3336 21.5479 3.61885C20.8331 2.90409 19.8642 2.50176 18.8534 2.5ZM21.3334 18.6867C21.3317 19.3439 21.0698 19.9736 20.6051 20.4383C20.1404 20.9031 19.5106 21.1649 18.8534 21.1667H6.48008C5.82289 21.1649 5.19311 20.9031 4.7284 20.4383C4.26369 19.9736 4.00184 19.3439 4.00008 18.6867V6.31333C4.00184 5.65614 4.26369 5.02636 4.7284 4.56165C5.19311 4.09694 5.82289 3.83509 6.48008 3.83333H18.8534C19.5106 3.83509 20.1404 4.09694 20.6051 4.56165C21.0698 5.02636 21.3317 5.65614 21.3334 6.31333V18.6867Z" fill="#100E2C"/>
<path d="M19.2661 13.8492C19.0716 13.8492 18.8851 13.9264 18.7476 14.064C18.61 14.2015 18.5328 14.388 18.5328 14.5825V17.3325L7.83343 6.63317H10.5834C10.7779 6.63317 10.9644 6.55591 11.102 6.41838C11.2395 6.28086 11.3168 6.09433 11.3168 5.89984C11.3168 5.70535 11.2395 5.51882 11.102 5.38129C10.9644 5.24377 10.7779 5.1665 10.5834 5.1665H5.83876C5.70456 5.1665 5.57586 5.21981 5.48097 5.31471C5.38607 5.4096 5.33276 5.5383 5.33276 5.6725V10.4172C5.33276 10.6117 5.41003 10.7982 5.54755 10.9357C5.68508 11.0732 5.8716 11.1505 6.0661 11.1505C6.26059 11.1505 6.44712 11.0732 6.58464 10.9357C6.72217 10.7982 6.79943 10.6117 6.79943 10.4172V7.66717L17.4988 18.3665H14.7488C14.5543 18.3665 14.3677 18.4438 14.2302 18.5813C14.0927 18.7188 14.0154 18.9053 14.0154 19.0998C14.0154 19.2943 14.0927 19.4809 14.2302 19.6184C14.3677 19.7559 14.5543 19.8332 14.7488 19.8332H19.4934C19.6276 19.8332 19.7563 19.7799 19.8512 19.685C19.9461 19.5901 19.9994 19.4614 19.9994 19.3272V14.5825C19.9994 14.388 19.9222 14.2015 19.7846 14.064C19.6471 13.9264 19.4606 13.8492 19.2661 13.8492Z" fill="#100E2C"/>
</svg>
